<svg width="150" height="21" viewBox="0 0 150 21" fill="none" xmlns="http://www.w3.org/2000/svg">
<path fill-rule="evenodd" clip-rule="evenodd" d="M144.718 0.704247H150C149.415 1.10141 149.064 1.58783 149.064 2.25359V18.1655C149.064 18.8304 149.43 19.3045 150 19.7009H144.718C145.288 19.3045 145.639 18.8181 145.639 18.1655V2.25277C145.64 1.58701 145.303 1.10059 144.718 0.704247ZM22.2864 7.53954C21.4234 5.91404 20.4723 4.31392 18.8772 3.14946C17.1801 1.89492 15.028 1.1399 12.8038 1.1399C6.89243 1.1399 4.2433 5.81167 4.2433 10.4073C4.2433 14.8498 6.77542 19.3422 12.4818 19.3422C14.808 19.3422 17.0771 18.4595 18.5102 16.8585V13.2742C18.5102 12.3014 18.1442 11.6749 17.2812 11.0993H23.3246C22.6805 11.7388 22.2864 12.3915 22.2864 13.2742V16.8585C19.5203 19.1121 16.082 20.4936 12.2628 20.4936C5.51732 20.4936 0 16.1543 0 10.1125C0 4.1092 5.44336 0 12.1018 0C16.243 0 19.5933 1.33152 22.2864 4.00684V7.53954ZM37.0944 0.704247H42.7868C42.0108 1.20295 41.7477 1.76635 41.7477 2.59835V14.2094C41.7477 17.3957 46.0201 18.9582 49.1522 18.9582C52.2254 18.9582 56.2347 17.3842 56.2347 14.2733V2.59835C56.2347 1.81712 56.0147 1.27993 55.4156 0.704247H58.5178C57.8887 1.26764 57.6547 1.83023 57.6547 2.59835V14.2733C57.6547 18.4717 51.9923 20.0841 48.0701 20.0841C44.0318 20.0841 38.1344 18.5233 38.1344 14.2094V2.59835C38.1335 1.80484 37.7675 1.21605 37.0944 0.704247ZM94.1033 7.60341C93.3432 5.92632 92.4501 4.45477 90.884 3.23872C89.2019 1.93259 87.1528 1.11369 84.8856 1.11369C79.0331 1.11369 76.033 5.59385 76.033 10.2411C76.033 14.9128 79.1502 19.3291 84.9296 19.3291C89.2318 19.3291 92.305 16.6792 94.1042 13.4912V16.9478C91.4279 19.2652 87.9737 20.4428 84.1985 20.4428C77.2031 20.4428 71.9647 16.4876 71.9647 10.1772C71.9647 4.04614 76.9981 0.013926 83.8615 0.013926C87.6658 0.013926 91.3521 1.1661 94.1033 3.45736V7.60341ZM130.803 7.60341C130.043 5.92632 129.148 4.45477 127.583 3.23872C125.901 1.93259 123.852 1.11369 121.585 1.11369C115.731 1.11369 112.745 5.59385 112.745 10.2411C112.745 14.9128 115.848 19.3291 121.629 19.3291C125.931 19.3291 129.018 16.6792 130.804 13.4912V16.9478C128.125 19.2652 124.686 20.4428 120.898 20.4428C113.902 20.4428 108.665 16.4876 108.665 10.1772C108.665 4.04614 113.698 0.013926 120.56 0.013926C124.364 0.013926 128.052 1.1661 130.804 3.45736L130.803 7.60341Z" fill="white"/>
</svg>
